<svg width="813" height="112" viewBox="0 0 813 112" fill="none" xmlns="http://www.w3.org/2000/svg">
<path d="M191.045 94C186.534 85.9873 181.652 78.0757 176.4 70.265C171.148 62.4543 165.559 55.0813 159.634 48.146V94H144.08V24.007H156.907C159.129 26.229 161.587 28.956 164.28 32.188C166.973 35.42 169.7 38.8877 172.461 42.591C175.289 46.227 178.083 50.0313 180.844 54.004C183.605 57.9093 186.197 61.68 188.621 65.316V24.007H204.276V94H191.045ZM217.953 67.841C217.953 63.1277 218.66 59.0203 220.074 55.519C221.556 51.9503 223.475 48.9877 225.831 46.631C228.188 44.2743 230.881 42.49 233.911 41.278C237.009 40.066 240.173 39.46 243.405 39.46C250.947 39.46 256.906 41.783 261.282 46.429C265.659 51.0077 267.847 57.7747 267.847 66.73C267.847 67.6053 267.814 68.5817 267.746 69.659C267.679 70.669 267.612 71.578 267.544 72.386H233.406C233.743 75.4833 235.191 77.941 237.749 79.759C240.308 81.577 243.742 82.486 248.051 82.486C250.812 82.486 253.505 82.2503 256.131 81.779C258.825 81.2403 261.013 80.6007 262.696 79.86L264.716 92.081C263.908 92.485 262.831 92.889 261.484 93.293C260.138 93.697 258.623 94.0337 256.939 94.303C255.323 94.6397 253.573 94.909 251.687 95.111C249.802 95.313 247.917 95.414 246.031 95.414C241.251 95.414 237.076 94.707 233.507 93.293C230.006 91.879 227.077 89.96 224.72 87.536C222.431 85.0447 220.714 82.1157 219.569 78.749C218.492 75.3823 217.953 71.7463 217.953 67.841ZM253.303 62.084C253.236 60.8047 253 59.559 252.596 58.347C252.26 57.135 251.687 56.0577 250.879 55.115C250.139 54.1723 249.162 53.398 247.95 52.792C246.806 52.186 245.358 51.883 243.607 51.883C241.924 51.883 240.476 52.186 239.264 52.792C238.052 53.3307 237.042 54.0713 236.234 55.014C235.426 55.9567 234.787 57.0677 234.315 58.347C233.911 59.559 233.608 60.8047 233.406 62.084H253.303ZM325.877 92.182C323.318 92.9227 320.019 93.596 315.979 94.202C311.939 94.8753 307.697 95.212 303.253 95.212C298.741 95.212 294.971 94.606 291.941 93.394C288.978 92.182 286.621 90.4987 284.871 88.344C283.12 86.122 281.874 83.496 281.134 80.466C280.393 77.436 280.023 74.103 280.023 70.467V40.874H295.072V68.649C295.072 73.497 295.711 76.9983 296.991 79.153C298.27 81.3077 300.66 82.385 304.162 82.385C305.239 82.385 306.384 82.3513 307.596 82.284C308.808 82.1493 309.885 82.0147 310.828 81.88V40.874H325.877V92.182ZM373.087 54.206C371.74 53.8693 370.158 53.5327 368.34 53.196C366.522 52.792 364.569 52.59 362.482 52.59C361.539 52.59 360.394 52.691 359.048 52.893C357.768 53.0277 356.792 53.196 356.119 53.398V94H341.07V43.702C343.763 42.7593 346.928 41.884 350.564 41.076C354.267 40.2007 358.374 39.763 362.886 39.763C363.694 39.763 364.67 39.8303 365.815 39.965C366.959 40.0323 368.104 40.167 369.249 40.369C370.393 40.5037 371.538 40.7057 372.683 40.975C373.827 41.177 374.804 41.4463 375.612 41.783L373.087 54.206ZM433.452 67.336C433.452 71.5107 432.846 75.3487 431.634 78.85C430.422 82.284 428.671 85.2467 426.382 87.738C424.092 90.162 421.332 92.0473 418.1 93.394C414.935 94.7407 411.366 95.414 407.394 95.414C403.488 95.414 399.92 94.7407 396.688 93.394C393.523 92.0473 390.796 90.162 388.507 87.738C386.217 85.2467 384.433 82.284 383.154 78.85C381.874 75.3487 381.235 71.5107 381.235 67.336C381.235 63.1613 381.874 59.357 383.154 55.923C384.5 52.489 386.318 49.56 388.608 47.136C390.964 44.712 393.725 42.8267 396.89 41.48C400.122 40.1333 403.623 39.46 407.394 39.46C411.232 39.46 414.733 40.1333 417.898 41.48C421.13 42.8267 423.89 44.712 426.18 47.136C428.469 49.56 430.253 52.489 431.533 55.923C432.812 59.357 433.452 63.1613 433.452 67.336ZM418.1 67.336C418.1 62.69 417.157 59.054 415.272 56.428C413.454 53.7347 410.828 52.388 407.394 52.388C403.96 52.388 401.3 53.7347 399.415 56.428C397.529 59.054 396.587 62.69 396.587 67.336C396.587 71.982 397.529 75.6853 399.415 78.446C401.3 81.1393 403.96 82.486 407.394 82.486C410.828 82.486 413.454 81.1393 415.272 78.446C417.157 75.6853 418.1 71.982 418.1 67.336ZM446.176 42.692C448.734 41.9513 452.034 41.278 456.074 40.672C460.114 39.9987 464.356 39.662 468.8 39.662C473.311 39.662 477.048 40.268 480.011 41.48C483.041 42.6247 485.431 44.2743 487.182 46.429C488.932 48.5837 490.178 51.1423 490.919 54.105C491.659 57.0677 492.03 60.367 492.03 64.003V94H476.981V65.821C476.981 60.973 476.341 57.539 475.062 55.519C473.782 53.499 471.392 52.489 467.891 52.489C466.813 52.489 465.669 52.5563 464.457 52.691C463.245 52.7583 462.167 52.8593 461.225 52.994V94H446.176V42.692Z" fill="#00D2DB"/>
<path d="M551.269 95.414C548.105 95.414 545.378 94.909 543.088 93.899C540.799 92.8217 538.914 91.374 537.432 89.556C536.018 87.738 534.975 85.5833 534.301 83.092C533.628 80.6007 533.291 77.9073 533.291 75.012C533.291 70.5007 534.066 66.1577 535.614 61.983C537.23 57.741 539.486 54.0377 542.381 50.873C545.344 47.641 548.946 45.0823 553.188 43.197C557.43 41.2443 562.245 40.268 567.631 40.268C568.305 40.268 569.113 40.3017 570.055 40.369C570.998 40.4363 572.042 40.6047 573.186 40.874L578.741 17.644L591.467 15.624L577.63 72.891C577.294 74.4397 577.024 76.022 576.822 77.638C576.688 79.1867 576.62 80.668 576.62 82.082C576.62 83.9 576.789 85.718 577.125 87.536C577.462 89.354 578.001 91.2393 578.741 93.192L567.833 94.808C567.093 93.394 566.453 91.677 565.914 89.657C564.231 91.1383 562.177 92.485 559.753 93.697C557.329 94.8417 554.501 95.414 551.269 95.414ZM570.762 50.772C569.483 50.5027 567.934 50.368 566.116 50.368C563.019 50.368 560.191 51.0413 557.632 52.388C555.074 53.6673 552.885 55.418 551.067 57.64C549.249 59.7947 547.835 62.286 546.825 65.114C545.883 67.942 545.411 70.871 545.411 73.901C545.411 75.4497 545.546 76.8973 545.815 78.244C546.152 79.5907 546.657 80.769 547.33 81.779C548.004 82.789 548.879 83.597 549.956 84.203C551.101 84.809 552.481 85.112 554.097 85.112C556.252 85.112 558.137 84.6743 559.753 83.799C561.437 82.9237 563.019 81.7117 564.5 80.163C564.568 78.749 564.702 77.2677 564.904 75.719C565.174 74.1703 565.477 72.6553 565.813 71.174L570.762 50.772ZM611.65 95.414C605.388 95.414 600.607 93.5623 597.308 89.859C594.008 86.1557 592.359 81.274 592.359 75.214C592.359 71.3087 592.965 67.2687 594.177 63.094C595.389 58.9193 597.24 55.115 599.732 51.681C602.223 48.247 605.354 45.419 609.125 43.197C612.895 40.975 617.339 39.864 622.457 39.864C628.719 39.864 633.499 41.7157 636.799 45.419C640.098 49.055 641.748 53.903 641.748 59.963C641.748 63.9357 641.142 68.0093 639.93 72.184C638.785 76.3587 636.967 80.163 634.476 83.597C632.052 87.031 628.921 89.859 625.083 92.081C621.312 94.303 616.834 95.414 611.65 95.414ZM620.942 50.166C618.316 50.166 615.959 50.9403 613.872 52.489C611.852 53.9703 610.135 55.8893 608.721 58.246C607.374 60.6027 606.33 63.195 605.59 66.023C604.849 68.7837 604.479 71.477 604.479 74.103C604.479 77.4697 605.118 80.1293 606.398 82.082C607.677 84.0347 609.933 85.011 613.165 85.011C615.791 85.011 618.114 84.2703 620.134 82.789C622.221 81.2403 623.938 79.3213 625.285 77.032C626.699 74.6753 627.776 72.083 628.517 69.255C629.257 66.427 629.628 63.7337 629.628 61.175C629.628 57.8083 628.988 55.1487 627.709 53.196C626.429 51.176 624.174 50.166 620.942 50.166ZM650.336 74.002C650.336 69.4233 651.043 65.0803 652.457 60.973C653.939 56.7983 656.026 53.1623 658.719 50.065C661.413 46.9003 664.712 44.409 668.617 42.591C672.523 40.773 676.967 39.864 681.949 39.864C684.575 39.864 686.966 40.0997 689.12 40.571C691.342 40.975 693.43 41.6147 695.382 42.49L691.039 52.287C689.827 51.7483 688.481 51.277 686.999 50.873C685.518 50.469 683.7 50.267 681.545 50.267C678.65 50.267 676.024 50.873 673.667 52.085C671.378 53.2297 669.425 54.812 667.809 56.832C666.193 58.852 664.948 61.2423 664.072 64.003C663.197 66.7637 662.759 69.6927 662.759 72.79C662.759 74.5407 662.928 76.1567 663.264 77.638C663.668 79.052 664.274 80.3313 665.082 81.476C665.958 82.5533 667.136 83.395 668.617 84.001C670.099 84.607 671.95 84.91 674.172 84.91C676.462 84.91 678.65 84.607 680.737 84.001C682.892 83.395 684.542 82.789 685.686 82.183L686.696 92.182C685.148 92.9227 683.094 93.6297 680.535 94.303C677.977 95.0437 675.081 95.414 671.849 95.414C668.146 95.414 664.948 94.8753 662.254 93.798C659.561 92.6533 657.305 91.1383 655.487 89.253C653.737 87.3003 652.424 85.0447 651.548 82.486C650.74 79.86 650.336 77.032 650.336 74.002ZM711.771 85.415C715.003 85.415 717.562 84.91 719.447 83.9C721.332 82.8227 722.275 81.2067 722.275 79.052C722.275 77.3013 721.669 75.921 720.457 74.911C719.245 73.8337 717.124 72.588 714.094 71.174C712.478 70.4333 710.963 69.659 709.549 68.851C708.202 68.043 707.024 67.1003 706.014 66.023C705.004 64.9457 704.196 63.7 703.59 62.286C702.984 60.8047 702.681 59.054 702.681 57.034C702.681 51.782 704.6 47.6073 708.438 44.51C712.276 41.4127 717.831 39.864 725.103 39.864C728.47 39.864 731.466 40.2343 734.092 40.975C736.785 41.6483 738.805 42.3553 740.152 43.096L735.809 52.59C734.664 51.9167 733.015 51.277 730.86 50.671C728.705 49.9977 726.45 49.661 724.093 49.661C722.948 49.661 721.804 49.762 720.659 49.964C719.582 50.166 718.605 50.5027 717.73 50.974C716.855 51.4453 716.114 52.1187 715.508 52.994C714.969 53.802 714.7 54.812 714.7 56.024C714.7 57.5727 715.306 58.852 716.518 59.862C717.797 60.8047 719.615 61.8147 721.972 62.892C724.194 63.902 726.079 64.8783 727.628 65.821C729.177 66.7637 730.456 67.841 731.466 69.053C732.476 70.1977 733.217 71.5107 733.688 72.992C734.159 74.406 734.395 76.123 734.395 78.143C734.395 80.6343 733.89 82.9573 732.88 85.112C731.87 87.1993 730.389 89.0173 728.436 90.566C726.551 92.0473 724.194 93.2257 721.366 94.101C718.538 94.9763 715.306 95.414 711.67 95.414C709.179 95.414 706.923 95.2457 704.903 94.909C702.95 94.5723 701.233 94.202 699.752 93.798C698.271 93.3267 697.025 92.8553 696.015 92.384C695.005 91.9127 694.231 91.5087 693.692 91.172L698.035 81.577C698.506 81.8463 699.18 82.2167 700.055 82.688C700.998 83.092 702.041 83.496 703.186 83.9C704.398 84.304 705.711 84.6743 707.125 85.011C708.606 85.2803 710.155 85.415 711.771 85.415Z" fill="#00D2DB" fill-opacity="0.49"/>
<path d="M85.9484 62.413C82.084 62.413 78.5712 64.0524 75.9952 66.6284L66.042 60.8905C66.6275 59.2511 66.9789 57.4947 66.9789 55.7382C66.9789 53.9818 66.6275 52.2253 66.042 50.5859L75.9952 44.848C78.5712 47.424 82.084 49.0634 85.9484 49.0634C93.6767 49.0634 100 42.7401 100 35.0118C100 27.2836 93.6767 20.9603 85.9484 20.9603C78.2202 20.9603 71.8968 27.2836 71.8968 35.0118C71.8968 36.2998 72.1309 37.4708 72.4823 38.6417L62.5291 44.3796C60.1872 41.8036 57.1428 39.9297 53.5129 39.1102V27.6348C59.4847 25.9953 64.0516 20.609 64.0516 14.0516C64.0516 6.32331 57.7283 0 50 0C42.2717 0 35.9484 6.32331 35.9484 14.0516C35.9484 20.6089 40.3983 25.9954 46.4871 27.6348V39.1102C42.9742 39.8127 39.8128 41.8036 37.4709 44.3796L27.5177 38.6417C27.8691 37.4708 28.1032 36.2998 28.1032 35.0118C28.1032 27.2836 21.7798 20.9603 14.0516 20.9603C6.32331 20.9603 0 27.2836 0 35.0118C0 42.7401 6.32331 49.0634 14.0516 49.0634C17.916 49.0634 21.4288 47.424 24.0048 44.848L33.958 50.5859C33.3725 52.2253 33.0211 53.9818 33.0211 55.7382C33.0211 57.4947 33.3725 59.2511 33.958 60.8905L24.0048 66.6284C21.4288 64.0524 17.916 62.413 14.0516 62.413C6.32331 62.413 0 68.7363 0 76.4646C0 84.1928 6.32331 90.5162 14.0516 90.5162C21.7798 90.5162 28.1032 84.1928 28.1032 76.4646C28.1032 75.1766 27.8691 74.0056 27.5177 72.8347L37.4709 67.0969C39.8128 69.6728 42.8572 71.5467 46.3701 72.3662V83.8417C40.3983 85.4811 35.8314 90.8674 35.8314 97.4248C35.8314 105.153 42.1547 111.476 49.883 111.476C57.6113 111.476 63.9346 105.153 63.9346 97.4248C63.9346 90.8675 59.4847 85.481 53.3959 83.8417V72.3662C56.9088 71.6637 59.9532 69.6728 62.2951 67.0969L72.2483 72.8347C71.8969 74.0056 71.6628 75.1766 71.6628 76.4646C71.6628 84.1928 77.9862 90.5162 85.7144 90.5162C93.4427 90.5162 99.766 84.1928 99.766 76.4646C100 68.7363 93.7942 62.413 85.9486 62.413H85.9484ZM85.9484 27.9866C89.8128 27.9866 92.8572 31.148 92.8572 34.8954C92.8572 38.6423 89.6958 41.8042 85.9484 41.8042C82.084 41.8042 79.0396 38.6428 79.0396 34.8954C79.04 31.1481 82.2014 27.9866 85.9484 27.9866ZM14.0512 41.9211C10.1868 41.9211 7.1424 38.7597 7.1424 35.0123C7.1424 31.2654 10.3038 28.1035 14.0512 28.1035C17.9156 28.1035 20.96 31.265 20.96 35.0123C20.9596 38.7596 17.7982 41.9211 14.0512 41.9211ZM14.0512 83.4904C10.1868 83.4904 7.1424 80.329 7.1424 76.5816C7.1424 72.7172 10.3038 69.6728 14.0512 69.6728C17.9156 69.6728 20.96 72.8342 20.96 76.5816C20.9596 80.3289 17.7982 83.4904 14.0512 83.4904ZM43.0911 14.1693C43.0911 10.3049 46.2525 7.26047 49.9999 7.26047C53.7468 7.26047 56.9087 10.4219 56.9087 14.1693C56.9087 17.9161 53.7473 21.078 49.9999 21.078C46.253 21.078 43.0911 18.0336 43.0911 14.1693ZM56.9085 97.3077C56.9085 101.172 53.7471 104.217 49.9997 104.217C46.2528 104.217 43.0909 101.055 43.0909 97.3077C43.0909 93.5609 46.2523 90.399 49.9997 90.399C53.7466 90.399 56.9085 93.4434 56.9085 97.3077ZM49.9997 65.5746C44.6134 65.5746 40.1636 61.1247 40.1636 55.7385C40.1636 50.3523 44.6135 45.9024 49.9997 45.9024C55.386 45.9024 59.8358 50.3523 59.8358 55.7385C59.8358 61.1247 55.386 65.5746 49.9997 65.5746ZM85.9483 83.4904C82.0839 83.4904 79.0395 80.329 79.0395 76.5816C79.0395 72.7172 82.2009 69.6728 85.9483 69.6728C89.8127 69.6728 92.8571 72.8342 92.8571 76.5816C92.9741 80.3289 89.8127 83.4904 85.9483 83.4904Z" fill="#00D2DB"/>
</svg>
